<mxfile host="12352800-dcee-44fd-b98d-a87793c76c22" modified="2020-09-12T16:06:32.566Z" agent="5.0 (Windows NT 10.0; Win64; x64) AppleWebKit/537.36 (KHTML, like Gecko) Code/1.48.2 Chrome/78.0.3904.130 Electron/7.3.2 Safari/537.36" etag="BJuPopC4oibU_jo9t64t" version="13.1.3">
    <diagram id="6hGFLwfOUW9BJ-s0fimq" name="AWS Architecture">
        <mxGraphModel dx="1966" dy="1186" grid="0" gridSize="10" guides="1" tooltips="1" connect="1" arrows="1" fold="1" page="0" pageScale="1" pageWidth="827" pageHeight="1169" math="0" shadow="0">
            <root>
                <mxCell id="0"/>
                <mxCell id="1" parent="0"/>
                <mxCell id="20" value="" style="group" parent="1" vertex="1" connectable="0">
                    <mxGeometry x="219.63" y="208" width="313.58" height="481" as="geometry"/>
                </mxCell>
                <mxCell id="19" value="" style="rounded=0;whiteSpace=wrap;html=1;" parent="20" vertex="1">
                    <mxGeometry width="313.58" height="481" as="geometry"/>
                </mxCell>
                <object label="Capability Tracker (CaT)" id="8">
                    <mxCell style="swimlane;fontStyle=0;childLayout=stackLayout;horizontal=1;startSize=26;fillColor=none;horizontalStack=0;resizeParent=1;resizeParentMax=0;resizeLast=0;collapsible=1;marginBottom=0;" parent="20" vertex="1">
                        <mxGeometry x="17.666478873239438" y="170.5" width="276.03873239436615" height="286" as="geometry">
                            <mxRectangle x="16" y="170.5" width="157" height="26" as="alternateBounds"/>
                        </mxGeometry>
                    </mxCell>
                </object>
                <mxCell id="9" value="ID: string" style="text;strokeColor=none;fillColor=none;align=left;verticalAlign=top;spacingLeft=4;spacingRight=4;overflow=hidden;rotatable=0;points=[[0,0.5],[1,0.5]];portConstraint=eastwest;" parent="8" vertex="1">
                    <mxGeometry y="26" width="276.03873239436615" height="26" as="geometry"/>
                </mxCell>
                <mxCell id="10" value="Description: string" style="text;strokeColor=none;fillColor=none;align=left;verticalAlign=top;spacingLeft=4;spacingRight=4;overflow=hidden;rotatable=0;points=[[0,0.5],[1,0.5]];portConstraint=eastwest;" parent="8" vertex="1">
                    <mxGeometry y="52" width="276.03873239436615" height="26" as="geometry"/>
                </mxCell>
                <mxCell id="11" value="Category: string" style="text;strokeColor=none;fillColor=none;align=left;verticalAlign=top;spacingLeft=4;spacingRight=4;overflow=hidden;rotatable=0;points=[[0,0.5],[1,0.5]];portConstraint=eastwest;" parent="8" vertex="1">
                    <mxGeometry y="78" width="276.03873239436615" height="26" as="geometry"/>
                </mxCell>
                <mxCell id="12" value="Priority: string" style="text;strokeColor=none;fillColor=none;align=left;verticalAlign=top;spacingLeft=4;spacingRight=4;overflow=hidden;rotatable=0;points=[[0,0.5],[1,0.5]];portConstraint=eastwest;" parent="8" vertex="1">
                    <mxGeometry y="104" width="276.03873239436615" height="26" as="geometry"/>
                </mxCell>
                <mxCell id="13" value="PrerequisiteCapabilities: list&lt;CaT&gt;" style="text;strokeColor=none;fillColor=none;align=left;verticalAlign=top;spacingLeft=4;spacingRight=4;overflow=hidden;rotatable=0;points=[[0,0.5],[1,0.5]];portConstraint=eastwest;" parent="8" vertex="1">
                    <mxGeometry y="130" width="276.03873239436615" height="26" as="geometry"/>
                </mxCell>
                <mxCell id="14" value="TargetPlatform: string" style="text;strokeColor=none;fillColor=none;align=left;verticalAlign=top;spacingLeft=4;spacingRight=4;overflow=hidden;rotatable=0;points=[[0,0.5],[1,0.5]];portConstraint=eastwest;" parent="8" vertex="1">
                    <mxGeometry y="156" width="276.03873239436615" height="26" as="geometry"/>
                </mxCell>
                <mxCell id="15" value="SourceDocumentation: link" style="text;strokeColor=none;fillColor=none;align=left;verticalAlign=top;spacingLeft=4;spacingRight=4;overflow=hidden;rotatable=0;points=[[0,0.5],[1,0.5]];portConstraint=eastwest;" parent="8" vertex="1">
                    <mxGeometry y="182" width="276.03873239436615" height="26" as="geometry"/>
                </mxCell>
                <mxCell id="16" value="CapabilityFunction: function(project)" style="text;strokeColor=none;fillColor=none;align=left;verticalAlign=top;spacingLeft=4;spacingRight=4;overflow=hidden;rotatable=0;points=[[0,0.5],[1,0.5]];portConstraint=eastwest;" parent="8" vertex="1">
                    <mxGeometry y="208" width="276.03873239436615" height="26" as="geometry"/>
                </mxCell>
                <mxCell id="17" value="ComplianceFunction: function(project)" style="text;strokeColor=none;fillColor=none;align=left;verticalAlign=top;spacingLeft=4;spacingRight=4;overflow=hidden;rotatable=0;points=[[0,0.5],[1,0.5]];portConstraint=eastwest;" parent="8" vertex="1">
                    <mxGeometry y="234" width="276.03873239436615" height="26" as="geometry"/>
                </mxCell>
                <mxCell id="79" value="(Optional) RemediationFunction: function(project)" style="text;strokeColor=none;fillColor=none;align=left;verticalAlign=top;spacingLeft=4;spacingRight=4;overflow=hidden;rotatable=0;points=[[0,0.5],[1,0.5]];portConstraint=eastwest;" parent="8" vertex="1">
                    <mxGeometry y="260" width="276.03873239436615" height="26" as="geometry"/>
                </mxCell>
                <mxCell id="3" value="CaT Pack" style="swimlane;fontStyle=0;childLayout=stackLayout;horizontal=1;startSize=26;fillColor=none;horizontalStack=0;resizeParent=1;resizeParentMax=0;resizeLast=0;collapsible=1;marginBottom=0;" parent="20" vertex="1">
                    <mxGeometry x="17.666478873239438" y="17" width="276.03873239436615" height="130" as="geometry"/>
                </mxCell>
                <mxCell id="4" value="Name: string" style="text;strokeColor=none;fillColor=none;align=left;verticalAlign=top;spacingLeft=4;spacingRight=4;overflow=hidden;rotatable=0;points=[[0,0.5],[1,0.5]];portConstraint=eastwest;" parent="3" vertex="1">
                    <mxGeometry y="26" width="276.03873239436615" height="26" as="geometry"/>
                </mxCell>
                <mxCell id="5" value="Category: string" style="text;strokeColor=none;fillColor=none;align=left;verticalAlign=top;spacingLeft=4;spacingRight=4;overflow=hidden;rotatable=0;points=[[0,0.5],[1,0.5]];portConstraint=eastwest;" parent="3" vertex="1">
                    <mxGeometry y="52" width="276.03873239436615" height="26" as="geometry"/>
                </mxCell>
                <mxCell id="6" value="Capability Trackers: list&lt;CaT&gt;" style="text;strokeColor=none;fillColor=none;align=left;verticalAlign=top;spacingLeft=4;spacingRight=4;overflow=hidden;rotatable=0;points=[[0,0.5],[1,0.5]];portConstraint=eastwest;" parent="3" vertex="1">
                    <mxGeometry y="78" width="276.03873239436615" height="26" as="geometry"/>
                </mxCell>
                <mxCell id="7" value="CaTPacks: list&lt;CaTPacks&gt;" style="text;strokeColor=none;fillColor=none;align=left;verticalAlign=top;spacingLeft=4;spacingRight=4;overflow=hidden;rotatable=0;points=[[0,0.5],[1,0.5]];portConstraint=eastwest;" parent="3" vertex="1">
                    <mxGeometry y="104" width="276.03873239436615" height="26" as="geometry"/>
                </mxCell>
                <mxCell id="18" style="edgeStyle=orthogonalEdgeStyle;rounded=0;orthogonalLoop=1;jettySize=auto;html=1;exitX=0.5;exitY=0.962;exitDx=0;exitDy=0;entryX=0.5;entryY=0;entryDx=0;entryDy=0;exitPerimeter=0;" parent="20" source="7" target="8" edge="1">
                    <mxGeometry relative="1" as="geometry"/>
                </mxCell>
                <mxCell id="42" value="" style="group" parent="1" vertex="1" connectable="0">
                    <mxGeometry x="980" y="202" width="541" height="410" as="geometry"/>
                </mxCell>
                <mxCell id="22" value="" style="rounded=0;whiteSpace=wrap;html=1;labelPosition=center;verticalLabelPosition=top;align=center;verticalAlign=bottom;" parent="42" vertex="1">
                    <mxGeometry width="541" height="410" as="geometry"/>
                </mxCell>
                <mxCell id="23" value="API Gateway" style="shape=hexagon;perimeter=hexagonPerimeter2;whiteSpace=wrap;html=1;" parent="42" vertex="1">
                    <mxGeometry x="33" y="164.5" width="120" height="80" as="geometry"/>
                </mxCell>
                <mxCell id="34" style="edgeStyle=orthogonalEdgeStyle;rounded=0;orthogonalLoop=1;jettySize=auto;html=1;exitX=0;exitY=0.5;exitDx=0;exitDy=0;entryX=0.5;entryY=0;entryDx=0;entryDy=0;startArrow=classic;startFill=1;labelPosition=left;verticalLabelPosition=top;align=right;verticalAlign=bottom;" parent="42" source="24" target="23" edge="1">
                    <mxGeometry relative="1" as="geometry"/>
                </mxCell>
                <mxCell id="40" value="Always run, return result to API Gateway" style="edgeLabel;html=1;align=center;verticalAlign=bottom;resizable=0;points=[];labelPosition=center;verticalLabelPosition=top;spacingLeft=0;spacingRight=50;" parent="34" vertex="1" connectable="0">
                    <mxGeometry x="-0.471" y="-2" relative="1" as="geometry">
                        <mxPoint as="offset"/>
                    </mxGeometry>
                </mxCell>
                <mxCell id="24" value="CaTs-CaTPack.Name-CaT.ID-Capability" style="shape=hexagon;perimeter=hexagonPerimeter2;whiteSpace=wrap;html=1;" parent="42" vertex="1">
                    <mxGeometry x="345" y="17" width="146" height="99" as="geometry"/>
                </mxCell>
                <mxCell id="35" style="edgeStyle=orthogonalEdgeStyle;rounded=0;orthogonalLoop=1;jettySize=auto;html=1;exitX=0;exitY=0.5;exitDx=0;exitDy=0;entryX=1;entryY=0.5;entryDx=0;entryDy=0;startArrow=classic;startFill=1;" parent="42" source="25" target="23" edge="1">
                    <mxGeometry relative="1" as="geometry"/>
                </mxCell>
                <mxCell id="39" value="Run if Capability returned true" style="edgeLabel;html=1;align=center;verticalAlign=middle;resizable=0;points=[];spacingRight=50;" parent="35" vertex="1" connectable="0">
                    <mxGeometry x="-0.3028" y="-1" relative="1" as="geometry">
                        <mxPoint as="offset"/>
                    </mxGeometry>
                </mxCell>
                <mxCell id="25" value="CaTs-CaTPack.Name-CaT.ID-Compliance" style="shape=hexagon;perimeter=hexagonPerimeter2;whiteSpace=wrap;html=1;" parent="42" vertex="1">
                    <mxGeometry x="345" y="155" width="146" height="99" as="geometry"/>
                </mxCell>
                <mxCell id="36" style="edgeStyle=orthogonalEdgeStyle;rounded=0;orthogonalLoop=1;jettySize=auto;html=1;exitX=0;exitY=0.5;exitDx=0;exitDy=0;entryX=0.5;entryY=1;entryDx=0;entryDy=0;startArrow=classic;startFill=1;" parent="42" source="26" target="23" edge="1">
                    <mxGeometry relative="1" as="geometry"/>
                </mxCell>
                <mxCell id="41" value="Optional, run if Compliance returned false" style="edgeLabel;html=1;align=center;verticalAlign=top;resizable=0;points=[];spacingRight=50;labelPosition=center;verticalLabelPosition=bottom;" parent="36" vertex="1" connectable="0">
                    <mxGeometry x="-0.4914" y="1" relative="1" as="geometry">
                        <mxPoint as="offset"/>
                    </mxGeometry>
                </mxCell>
                <mxCell id="26" value="CaTs-CaTPack.Name-CaT.ID-Remediation" style="shape=hexagon;perimeter=hexagonPerimeter2;whiteSpace=wrap;html=1;dashed=1;" parent="42" vertex="1">
                    <mxGeometry x="345" y="293" width="146" height="99" as="geometry"/>
                </mxCell>
                <mxCell id="64" value="" style="group;container=1;" parent="1" vertex="1" connectable="0">
                    <mxGeometry x="67" y="746" width="1400" height="642" as="geometry"/>
                </mxCell>
                <mxCell id="60" value="" style="group" parent="64" vertex="1" connectable="0">
                    <mxGeometry width="1400" height="642" as="geometry"/>
                </mxCell>
                <mxCell id="57" value="" style="group" parent="60" vertex="1" connectable="0">
                    <mxGeometry width="1400" height="642" as="geometry"/>
                </mxCell>
                <mxCell id="50" value="" style="rounded=0;whiteSpace=wrap;html=1;fontSize=28;align=center;" parent="57" vertex="1">
                    <mxGeometry width="1311" height="581.3316993464052" as="geometry"/>
                </mxCell>
                <mxCell id="51" value="" style="rounded=0;whiteSpace=wrap;html=1;fontSize=28;align=center;" parent="57" vertex="1">
                    <mxGeometry width="109.83263598326359" height="581.3316993464052" as="geometry"/>
                </mxCell>
                <mxCell id="45" value="CaTS Portal" style="text;html=1;strokeColor=none;fillColor=none;align=center;verticalAlign=middle;whiteSpace=wrap;rounded=0;horizontal=0;fontSize=28;" parent="57" vertex="1">
                    <mxGeometry x="23.430962343096233" y="128.14966577540108" width="58.57740585774059" height="318.97745840760547" as="geometry"/>
                </mxCell>
                <mxCell id="53" value="&lt;font style=&quot;font-size: 12px&quot;&gt;&lt;b style=&quot;font-size: 14px&quot;&gt;Organization vs Public Marketplace&lt;/b&gt;&lt;br style=&quot;font-size: 14px&quot;&gt;&lt;span style=&quot;font-size: 14px&quot;&gt;Both options should be supported. Something similar to VS Marketplace?&lt;/span&gt;&lt;br style=&quot;font-size: 14px&quot;&gt;&lt;br style=&quot;font-size: 14px&quot;&gt;&lt;b style=&quot;font-size: 14px&quot;&gt;Publishing CatPacks&lt;/b&gt;&lt;br style=&quot;font-size: 14px&quot;&gt;&lt;span style=&quot;font-size: 14px&quot;&gt;Likely some fancy zip format like .nupkg with the 3 lambda functions and metadata json file included.&lt;/span&gt;&lt;br style=&quot;font-size: 14px&quot;&gt;&lt;br style=&quot;font-size: 14px&quot;&gt;&lt;b style=&quot;font-size: 14px&quot;&gt;Installing Organization CaTPacks&lt;br&gt;&lt;/b&gt;&lt;span style=&quot;font-size: 14px&quot;&gt;Once opted in, CaTPack is added to Administration portal list&lt;/span&gt;&lt;br&gt;&lt;/font&gt;" style="rounded=0;whiteSpace=wrap;html=1;fontSize=28;align=center;spacing=12;" parent="57" vertex="1">
                    <mxGeometry x="109.83263598326359" width="400" height="581.3316993464052" as="geometry"/>
                </mxCell>
                <mxCell id="56" value="&lt;h1 style=&quot;text-align: left ; font-size: 15px&quot;&gt;Opting into CaT Packs&lt;/h1&gt;&lt;div style=&quot;font-size: 12px ; font-weight: 700 ; text-align: left&quot;&gt;&lt;br&gt;&lt;/div&gt;&lt;div style=&quot;font-size: 12px ; font-weight: 700 ; text-align: left&quot;&gt;Administration Levels&lt;/div&gt;&lt;div style=&quot;font-size: 12px ; font-weight: 700 ; text-align: left&quot;&gt;&lt;ul&gt;&lt;li&gt;&lt;span style=&quot;font-weight: normal&quot;&gt;Global Administration&lt;/span&gt;&lt;/li&gt;&lt;li&gt;&lt;span style=&quot;font-weight: normal&quot;&gt;Management&lt;/span&gt;&lt;/li&gt;&lt;li&gt;&lt;span style=&quot;font-weight: 400&quot;&gt;Project Administration&lt;/span&gt;&lt;/li&gt;&lt;li&gt;&lt;span style=&quot;font-weight: 400&quot;&gt;Developer&lt;/span&gt;&lt;/li&gt;&lt;/ul&gt;&lt;div&gt;Opting-In&lt;/div&gt;&lt;/div&gt;&lt;div style=&quot;font-size: 12px ; font-weight: 700 ; text-align: left&quot;&gt;&lt;ol&gt;&lt;li&gt;&lt;span style=&quot;font-weight: 400&quot;&gt;User navigates to admin portal&lt;/span&gt;&lt;/li&gt;&lt;li&gt;&lt;span style=&quot;font-weight: 400&quot;&gt;User logs into account holding a certain administration level&lt;/span&gt;&lt;/li&gt;&lt;li&gt;&lt;span style=&quot;font-weight: 400&quot;&gt;User browses CaT pack collections&lt;/span&gt;&lt;/li&gt;&lt;li&gt;&lt;span style=&quot;font-weight: 400&quot;&gt;User can opt-in any owned projects to CaT packs&lt;/span&gt;&lt;/li&gt;&lt;/ol&gt;&lt;div&gt;Opting Out&lt;/div&gt;&lt;/div&gt;&lt;div style=&quot;font-size: 12px ; font-weight: 700 ; text-align: left&quot;&gt;&lt;span style=&quot;font-weight: normal&quot;&gt;Opting a project out of a CaT pack or CaT requires you to be at or above the administration level of the user who opted the project into the rule. (e.g. a Project Administrator cannot opt their project out of a rule placed by Management)&lt;/span&gt;&lt;/div&gt;&lt;div style=&quot;font-size: 12px ; font-weight: 700 ; text-align: left&quot;&gt;&lt;ol&gt;&lt;li&gt;&lt;span style=&quot;font-weight: normal&quot;&gt;User navigates to admin portal&lt;/span&gt;&lt;/li&gt;&lt;li&gt;&lt;span style=&quot;font-weight: normal&quot;&gt;User select owned project&lt;/span&gt;&lt;/li&gt;&lt;li&gt;&lt;span style=&quot;font-weight: normal&quot;&gt;User selects undesired CaT packs or individual CaTS&lt;/span&gt;&lt;/li&gt;&lt;li&gt;&lt;span style=&quot;font-weight: normal&quot;&gt;User selects 'Opt-Out'&lt;/span&gt;&lt;/li&gt;&lt;/ol&gt;&lt;/div&gt;" style="rounded=0;whiteSpace=wrap;html=1;fontSize=28;align=center;spacing=12;" parent="57" vertex="1">
                    <mxGeometry x="509.83376569037665" width="400" height="581.3316993464052" as="geometry"/>
                </mxCell>
                <mxCell id="59" value="&lt;span style=&quot;font-size: 12px&quot;&gt;Follow SonarQube/Cloud's example for project layout and issue breakdown&lt;/span&gt;&lt;font size=&quot;1&quot;&gt;&lt;span style=&quot;font-size: 14px&quot;&gt;&lt;br&gt;&lt;/span&gt;&lt;/font&gt;" style="rounded=0;whiteSpace=wrap;html=1;fontSize=28;align=center;" parent="57" vertex="1">
                    <mxGeometry x="910.2785774058576" width="400" height="581.3316993464052" as="geometry"/>
                </mxCell>
                <mxCell id="61" value="&lt;font style=&quot;font-size: 21px&quot;&gt;Marketplace&lt;/font&gt;" style="text;html=1;strokeColor=#FFF0FD;fillColor=none;align=center;verticalAlign=middle;whiteSpace=wrap;rounded=0;fontSize=28;perimeterSpacing=1;" parent="57" vertex="1">
                    <mxGeometry x="109.84" width="399.16" height="44.64161220043573" as="geometry"/>
                </mxCell>
                <mxCell id="63" value="&lt;font style=&quot;font-size: 21px&quot;&gt;Administration&lt;/font&gt;" style="text;html=1;strokeColor=#FFF0FD;fillColor=none;align=center;verticalAlign=middle;whiteSpace=wrap;rounded=0;fontSize=28;perimeterSpacing=1;" parent="57" vertex="1">
                    <mxGeometry x="509.83" width="400.17" height="44.64161220043573" as="geometry"/>
                </mxCell>
                <mxCell id="65" value="&lt;font style=&quot;font-size: 21px&quot;&gt;View&lt;/font&gt;" style="text;html=1;strokeColor=#FFF0FD;fillColor=none;align=center;verticalAlign=middle;whiteSpace=wrap;rounded=0;fontSize=28;perimeterSpacing=1;" parent="57" vertex="1">
                    <mxGeometry x="910.8299999999999" width="400.17" height="44.64161220043573" as="geometry"/>
                </mxCell>
                <mxCell id="71" style="edgeStyle=orthogonalEdgeStyle;rounded=0;orthogonalLoop=1;jettySize=auto;html=1;exitX=0.5;exitY=1;exitDx=0;exitDy=0;entryX=0.5;entryY=0;entryDx=0;entryDy=0;startArrow=none;startFill=0;fontSize=28;" parent="1" source="19" target="61" edge="1">
                    <mxGeometry relative="1" as="geometry"/>
                </mxCell>
                <mxCell id="76" style="edgeStyle=orthogonalEdgeStyle;rounded=0;orthogonalLoop=1;jettySize=auto;html=1;exitX=1;exitY=0.5;exitDx=0;exitDy=0;startArrow=none;startFill=0;fontSize=28;" parent="1" source="74" target="22" edge="1">
                    <mxGeometry relative="1" as="geometry"/>
                </mxCell>
                <mxCell id="74" value="&lt;font style=&quot;font-size: 14px&quot;&gt;&lt;b&gt;Supported Triggers&lt;/b&gt;&lt;br&gt;&lt;ul&gt;&lt;li&gt;&lt;font style=&quot;font-size: 14px&quot;&gt;Manual&lt;/font&gt;&lt;/li&gt;&lt;li&gt;&lt;font style=&quot;font-size: 14px&quot;&gt;Scheduled&lt;/font&gt;&lt;/li&gt;&lt;li&gt;&lt;font style=&quot;font-size: 14px&quot;&gt;HTTP&lt;/font&gt;&lt;/li&gt;&lt;/ul&gt;&lt;/font&gt;" style="rounded=0;whiteSpace=wrap;html=1;strokeColor=#FFF0FD;fontSize=28;align=center;" parent="1" vertex="1">
                    <mxGeometry x="683.91" y="297" width="186" height="220" as="geometry"/>
                </mxCell>
                <mxCell id="75" style="edgeStyle=orthogonalEdgeStyle;rounded=0;orthogonalLoop=1;jettySize=auto;html=1;exitX=0.5;exitY=0;exitDx=0;exitDy=0;entryX=0.5;entryY=1;entryDx=0;entryDy=0;startArrow=none;startFill=0;fontSize=28;" parent="1" source="63" target="74" edge="1">
                    <mxGeometry relative="1" as="geometry"/>
                </mxCell>
                <mxCell id="78" style="edgeStyle=orthogonalEdgeStyle;rounded=0;orthogonalLoop=1;jettySize=auto;html=1;exitX=0.5;exitY=1;exitDx=0;exitDy=0;entryX=0.5;entryY=0;entryDx=0;entryDy=0;startArrow=none;startFill=0;fontSize=28;" parent="1" source="22" target="65" edge="1">
                    <mxGeometry relative="1" as="geometry"/>
                </mxCell>
            </root>
        </mxGraphModel>
    </diagram>
</mxfile>